<svg id="Capa_2" data-name="Capa 2" xmlns="http://www.w3.org/2000/svg" viewBox="0 0 452.66 125"><defs><style>.cls-1{fill:#00beaa;}.cls-2,.cls-4{fill:none;stroke-miterlimit:10;}.cls-2{stroke:#999;}.cls-3{fill:#fff;}.cls-4{stroke:#000;}</style></defs><path d="M420.3,393.29V341.11h17.08a44.65,44.65,0,0,1,10.89,1.16,13.47,13.47,0,0,1,7.16,4.15c1.71,2,2.57,4.82,2.57,8.48a24.8,24.8,0,0,1-.61,5.73,10,10,0,0,1-2.27,4.35,12.42,12.42,0,0,1-4.71,3.06l8.51,25.25H444.74l-6.82-23.38H434v23.38Zm13.71-30h3.83a9.67,9.67,0,0,0,4.53-.87,4.85,4.85,0,0,0,2.26-2.51,10.88,10.88,0,0,0,.65-4,8.29,8.29,0,0,0-1.46-5.22q-1.45-1.87-5.36-1.87H434Z" transform="translate(-285.42 -331.25)"/><path d="M472,393.29V341.11h27.9V349H485.74v12.95h10.8v8h-10.8V385.5h14.33v7.79Z" transform="translate(-285.42 -331.25)"/><path d="M529.8,394.07q-7,0-11.15-2.16a12.32,12.32,0,0,1-5.79-6.06,23.07,23.07,0,0,1-1.68-9.18V357.86a23.43,23.43,0,0,1,1.68-9.31,12.18,12.18,0,0,1,5.79-6q4.1-2.11,11.15-2.12,6.9,0,10.77,1.9a11.33,11.33,0,0,1,5.48,5.31,18.3,18.3,0,0,1,1.61,7.86V360H534.24v-5.21a21.91,21.91,0,0,0-.19-3,4,4,0,0,0-1.11-2.35,4.32,4.32,0,0,0-3.14-.93,4.55,4.55,0,0,0-3.18,1,4.3,4.3,0,0,0-1.3,2.42,16.75,16.75,0,0,0-.27,3.06v24.55a13.81,13.81,0,0,0,.34,3.19,4.23,4.23,0,0,0,1.38,2.32,4.66,4.66,0,0,0,3,.86,3.62,3.62,0,0,0,4.21-3.35,18.75,18.75,0,0,0,.23-3V374h13.42v4.51a19.27,19.27,0,0,1-1.58,8,11.58,11.58,0,0,1-5.44,5.54Q536.77,394.06,529.8,394.07Z" transform="translate(-285.42 -331.25)"/><path d="M578.69,394.07q-7,0-11-2.06a12.31,12.31,0,0,1-5.82-5.93,22.17,22.17,0,0,1-1.76-9.22V357.47a21.84,21.84,0,0,1,1.76-9.21,12.2,12.2,0,0,1,5.82-5.83q4.07-2,11-2t11.15,2a12.12,12.12,0,0,1,5.86,5.83,21.68,21.68,0,0,1,1.76,9.21v19.39a22,22,0,0,1-1.76,9.22,12.22,12.22,0,0,1-5.86,5.93Q585.75,394.07,578.69,394.07Zm0-8.19a4.58,4.58,0,0,0,3.14-.9,4.16,4.16,0,0,0,1.3-2.32,13.28,13.28,0,0,0,.31-2.9V354.64a13.16,13.16,0,0,0-.31-2.93,4.15,4.15,0,0,0-1.3-2.29,4.58,4.58,0,0,0-3.14-.9,4.33,4.33,0,0,0-3,.9,4.21,4.21,0,0,0-1.3,2.29,13.16,13.16,0,0,0-.31,2.93v25.12a15.41,15.41,0,0,0,.27,2.9,4.13,4.13,0,0,0,1.23,2.32A4.42,4.42,0,0,0,578.69,385.88Z" transform="translate(-285.42 -331.25)"/><path d="M619.23,393.29,608,341.11h11.72l6.67,35.43,6.21-35.43h12.41l-11.34,52.18Z" transform="translate(-285.42 -331.25)"/><path d="M657,393.29V341.11H684.9V349H670.72v12.95h10.81v8H670.72V385.5h14.33v7.79Z" transform="translate(-285.42 -331.25)"/><path d="M697,393.29V341.11H714.1A44.62,44.62,0,0,1,725,342.27a13.47,13.47,0,0,1,7.16,4.15c1.71,2,2.57,4.82,2.57,8.48a24.8,24.8,0,0,1-.61,5.73,10.08,10.08,0,0,1-2.26,4.35,12.46,12.46,0,0,1-4.72,3.06l8.51,25.25H721.45l-6.82-23.38h-3.91v23.38Zm13.71-30h3.84a9.65,9.65,0,0,0,4.52-.87,4.85,4.85,0,0,0,2.26-2.51,10.88,10.88,0,0,0,.65-4,8.29,8.29,0,0,0-1.46-5.22q-1.46-1.87-5.36-1.87h-4.45Z" transform="translate(-285.42 -331.25)"/><path d="M428.11,451.28V430l-11.8-30.86h12.95l5.9,16.5,5.29-16.5h12.41L441.29,430v21.33Z" transform="translate(-285.42 -331.25)"/><path d="M473.86,452.05q-7,0-11-2.06a12.25,12.25,0,0,1-5.83-5.93,22.09,22.09,0,0,1-1.76-9.21V415.46a21.92,21.92,0,0,1,1.76-9.22,12.22,12.22,0,0,1,5.83-5.83q4.05-2,11-2t11.15,2a12.16,12.16,0,0,1,5.86,5.83,21.76,21.76,0,0,1,1.77,9.22v19.39a21.93,21.93,0,0,1-1.77,9.21A12.18,12.18,0,0,1,485,450Q480.92,452,473.86,452.05Zm0-8.18A4.58,4.58,0,0,0,477,443a4.27,4.27,0,0,0,1.31-2.32,14,14,0,0,0,.3-2.9V412.62a13.86,13.86,0,0,0-.3-2.93A4.3,4.3,0,0,0,477,407.4a4.58,4.58,0,0,0-3.14-.9,4.34,4.34,0,0,0-3,.9,4.28,4.28,0,0,0-1.3,2.29,13.85,13.85,0,0,0-.31,2.93v25.13a15.49,15.49,0,0,0,.27,2.9,4.17,4.17,0,0,0,1.23,2.32A4.43,4.43,0,0,0,473.86,443.87Z" transform="translate(-285.42 -331.25)"/><path d="M518.15,452.05q-7.12,0-11.15-2a11.16,11.16,0,0,1-5.63-5.74,23.57,23.57,0,0,1-1.61-9.24v-36h13.57v37.76a17.54,17.54,0,0,0,.3,3.22,5,5,0,0,0,1.34,2.64,5.49,5.49,0,0,0,6.4,0,4.83,4.83,0,0,0,1.27-2.64,19.44,19.44,0,0,0,.27-3.22V399.09h13.64v36a23,23,0,0,1-1.65,9.24,11.39,11.39,0,0,1-5.63,5.74Q525.28,452.05,518.15,452.05Z" transform="translate(-285.42 -331.25)"/><path d="M544.51,451.28V399.09H561.6a45.15,45.15,0,0,1,10.89,1.16,13.48,13.48,0,0,1,7.16,4.16q2.57,3,2.57,8.47a24.12,24.12,0,0,1-.62,5.73,9.87,9.87,0,0,1-2.26,4.35,12.26,12.26,0,0,1-4.71,3.06l8.51,25.26H569l-6.82-23.39h-3.91v23.39Zm13.72-30h3.83a9.62,9.62,0,0,0,4.52-.87,4.81,4.81,0,0,0,2.27-2.52,10.8,10.8,0,0,0,.65-4,8.33,8.33,0,0,0-1.46-5.22c-1-1.24-2.76-1.87-5.36-1.87h-4.45Z" transform="translate(-285.42 -331.25)"/><path class="cls-1" d="M590,451.28V399.09h13.71v21.14h9.58V399.09h13.8v52.19h-13.8V428.47h-9.58v22.81Z" transform="translate(-285.42 -331.25)"/><path class="cls-1" d="M632.72,451.28l11.72-52.19h15.63l11.57,52.19H659l-2.07-11h-9.12l-2.14,11ZM649,433.37h6.59L652.33,413Z" transform="translate(-285.42 -331.25)"/><path class="cls-1" d="M677.24,451.28V399.09H691v52.19Z" transform="translate(-285.42 -331.25)"/><path class="cls-1" d="M699.46,451.28V399.09h17.09a45.06,45.06,0,0,1,10.88,1.16,13.51,13.51,0,0,1,7.17,4.16q2.56,3,2.56,8.47a24.15,24.15,0,0,1-.61,5.73,9.87,9.87,0,0,1-2.26,4.35,12.26,12.26,0,0,1-4.71,3.06l8.5,25.26H723.9l-6.82-23.39h-3.9v23.39Zm13.72-30H717a9.62,9.62,0,0,0,4.52-.87,4.83,4.83,0,0,0,2.26-2.52,10.8,10.8,0,0,0,.65-4,8.33,8.33,0,0,0-1.45-5.22c-1-1.24-2.76-1.87-5.37-1.87h-4.44Z" transform="translate(-285.42 -331.25)"/><circle class="cls-2" cx="62.5" cy="62.5" r="62"/><path class="cls-1" d="M362.84,337.11a77.37,77.37,0,0,0-32.92,4.64,62.34,62.34,0,0,0-30.58,26.35,54.51,54.51,0,0,0-7.52,25.37c-.26,5.58-.16,11.87.76,16.35.64,3.13,1.15,6.28,2.79,9l3.11,5.19a.29.29,0,0,0,.54-.12l.88-7s.06-.05.19.35l2.57,7.7a19.16,19.16,0,0,0,4.46,7.38c6.13,6.28,9.4,4.64,9.76,4.42,0,0,0,0,0,0a32.37,32.37,0,0,1-7-8c-1.39-2.08,8.31,4.71,14.37,9.05a11.09,11.09,0,0,1,4.63,9h0a1.6,1.6,0,0,0,.8,1.39l2.8,1.6c2.24,1.28,2.94,1.16,5.4,1.94,8.15,2.59,26.64.25,28-2,.69-1.16,1.89-3.34,3-5.45a21.73,21.73,0,0,1,7.58-8.09c4.63-2.91,10.38-7.19,12.53-8.81a.24.24,0,0,1,.34.32,66.22,66.22,0,0,1-3.72,6,11.94,11.94,0,0,1-1.37,1.63l-3.39,3.39c0,.19,1.26-.12,1.43-.2a30.56,30.56,0,0,0,13.57-12.8c.95-1.91,1.9-9.15,2-9.94,0,0,0,0,0,0,2.94,4,1,12.95,1,12.95,11-13,11-35,11-35a64.65,64.65,0,0,0-13.05-37.94A48,48,0,0,0,362.84,337.11Z" transform="translate(-285.42 -331.25)"/><path class="cls-3" d="M362.92,358.75s2.91,13.63-8,23c-3.41,2.93-7,6-9.85,8.39-5.13,4.32-16.91,13.42-16.15,25.61a16.94,16.94,0,0,0,5,11s-6.82-16.57,15.13-33.35c.48-.36,1-.72,1.47-1.07C354.41,389.55,373.92,375.75,362.92,358.75Z" transform="translate(-285.42 -331.25)"/><path class="cls-3" d="M354.92,349.75s2.89,9.39-7.91,22.37a51,51,0,0,1-9.94,9c-5.48,3.86-16.91,13.42-16.15,25.61a16.94,16.94,0,0,0,5,11s-8.58-17.16,18-35.65a28.73,28.73,0,0,0,4.87-4.27C353.88,372.2,363.21,359.55,354.92,349.75Z" transform="translate(-285.42 -331.25)"/><path class="cls-4" d="M357.19,438.83" transform="translate(-285.42 -331.25)"/><path class="cls-4" d="M359.92,436.75" transform="translate(-285.42 -331.25)"/><path class="cls-4" d="M371.92,365.77" transform="translate(-285.42 -331.25)"/><path class="cls-4" d="M356.66,396.46a6.3,6.3,0,0,0,.53-.37" transform="translate(-285.42 -331.25)"/><path class="cls-3" d="M357.19,396.07c-.18.12-.36.24-.53.37-12.74,10.31-18.74,16.31-18.74,27.31a21.8,21.8,0,0,0,1,4.21,17,17,0,0,0,9.54,10l.09,0a9.64,9.64,0,0,0,7.42,0,11.17,11.17,0,0,0,4.92-4.22c1.21-1.82,1-5.06,1-5,0-1-1.08-4.76-3-6-2.3-1.48-4.62-2.25-6.95-1.12a4.67,4.67,0,0,0-1.55,1.1h1c10.54-2,12.08,15-.46,13a12.82,12.82,0,0,1-4.65-1.91,13.33,13.33,0,0,1-3.35-4.09c-1.37-4.19-2.47-15.93,15-28a60.53,60.53,0,0,0,14.95-15,20.62,20.62,0,0,0-.95-21S376.45,382.39,357.19,396.07Z" transform="translate(-285.42 -331.25)"/><path class="cls-4" d="M364.92,432.75" transform="translate(-285.42 -331.25)"/><path class="cls-4" d="M365.92,433.75" transform="translate(-285.42 -331.25)"/><path class="cls-4" d="M349.87,443.07" transform="translate(-285.42 -331.25)"/></svg>